<mxfile host="app.diagrams.net" agent="Mozilla/5.0 (Macintosh; Intel Mac OS X 10_15_7) AppleWebKit/537.36 (KHTML, like Gecko) Chrome/128.0.0.0 Safari/537.36" version="24.7.17">
  <diagram name="Page-1" id="FDmgkn_FgRSuvjDNVWWI">
    <mxGraphModel dx="2450" dy="4686" grid="1" gridSize="10" guides="1" tooltips="1" connect="1" arrows="1" fold="1" page="1" pageScale="1" pageWidth="827" pageHeight="1169" math="0" shadow="0">
      <root>
        <mxCell id="0" />
        <mxCell id="1" parent="0" />
        <mxCell id="SOMYrXpBg_lJUjriWc2L-1" value="" style="rounded=1;whiteSpace=wrap;html=1;fillColor=#fff2cc;strokeColor=#d6b656;" vertex="1" parent="1">
          <mxGeometry x="2160" y="-620" width="980" height="270" as="geometry" />
        </mxCell>
        <mxCell id="SOMYrXpBg_lJUjriWc2L-2" style="edgeStyle=orthogonalEdgeStyle;rounded=0;orthogonalLoop=1;jettySize=auto;html=1;exitX=0.5;exitY=0;exitDx=0;exitDy=0;entryX=0.5;entryY=1;entryDx=0;entryDy=0;curved=1;" edge="1" parent="1" source="SOMYrXpBg_lJUjriWc2L-4" target="SOMYrXpBg_lJUjriWc2L-5">
          <mxGeometry relative="1" as="geometry" />
        </mxCell>
        <mxCell id="SOMYrXpBg_lJUjriWc2L-3" value="付出方向源头" style="edgeLabel;html=1;align=center;verticalAlign=middle;resizable=0;points=[];" vertex="1" connectable="0" parent="SOMYrXpBg_lJUjriWc2L-2">
          <mxGeometry x="-0.1458" y="2" relative="1" as="geometry">
            <mxPoint as="offset" />
          </mxGeometry>
        </mxCell>
        <mxCell id="SOMYrXpBg_lJUjriWc2L-4" value="挂账 100" style="ellipse;whiteSpace=wrap;html=1;" vertex="1" parent="1">
          <mxGeometry x="2360" y="-570" width="120" height="80" as="geometry" />
        </mxCell>
        <mxCell id="SOMYrXpBg_lJUjriWc2L-5" value="&amp;nbsp;结算 -100" style="ellipse;whiteSpace=wrap;html=1;" vertex="1" parent="1">
          <mxGeometry x="2270" y="-870" width="120" height="80" as="geometry" />
        </mxCell>
        <mxCell id="SOMYrXpBg_lJUjriWc2L-6" style="edgeStyle=orthogonalEdgeStyle;rounded=0;orthogonalLoop=1;jettySize=auto;html=1;exitX=1;exitY=0.5;exitDx=0;exitDy=0;entryX=0;entryY=1;entryDx=0;entryDy=0;curved=1;dashed=1;" edge="1" parent="1" source="SOMYrXpBg_lJUjriWc2L-7" target="SOMYrXpBg_lJUjriWc2L-12">
          <mxGeometry relative="1" as="geometry" />
        </mxCell>
        <mxCell id="SOMYrXpBg_lJUjriWc2L-7" value="&amp;nbsp;结算 +60" style="ellipse;whiteSpace=wrap;html=1;" vertex="1" parent="1">
          <mxGeometry x="2400" y="-310" width="120" height="80" as="geometry" />
        </mxCell>
        <mxCell id="SOMYrXpBg_lJUjriWc2L-8" style="edgeStyle=orthogonalEdgeStyle;rounded=0;orthogonalLoop=1;jettySize=auto;html=1;exitX=0;exitY=0.5;exitDx=0;exitDy=0;entryX=1;entryY=0.5;entryDx=0;entryDy=0;" edge="1" parent="1" source="SOMYrXpBg_lJUjriWc2L-12" target="SOMYrXpBg_lJUjriWc2L-4">
          <mxGeometry relative="1" as="geometry" />
        </mxCell>
        <mxCell id="SOMYrXpBg_lJUjriWc2L-9" value="&amp;nbsp;源头挂账单" style="edgeLabel;html=1;align=center;verticalAlign=middle;resizable=0;points=[];" vertex="1" connectable="0" parent="SOMYrXpBg_lJUjriWc2L-8">
          <mxGeometry x="0.09" relative="1" as="geometry">
            <mxPoint x="1" as="offset" />
          </mxGeometry>
        </mxCell>
        <mxCell id="SOMYrXpBg_lJUjriWc2L-10" style="edgeStyle=orthogonalEdgeStyle;rounded=0;orthogonalLoop=1;jettySize=auto;html=1;exitX=0.5;exitY=0;exitDx=0;exitDy=0;entryX=0.568;entryY=0.991;entryDx=0;entryDy=0;curved=1;entryPerimeter=0;" edge="1" parent="1" source="SOMYrXpBg_lJUjriWc2L-12" target="SOMYrXpBg_lJUjriWc2L-5">
          <mxGeometry relative="1" as="geometry" />
        </mxCell>
        <mxCell id="SOMYrXpBg_lJUjriWc2L-11" value="付出方向源头" style="edgeLabel;html=1;align=center;verticalAlign=middle;resizable=0;points=[];" vertex="1" connectable="0" parent="SOMYrXpBg_lJUjriWc2L-10">
          <mxGeometry x="0.1572" y="-2" relative="1" as="geometry">
            <mxPoint x="37" y="2" as="offset" />
          </mxGeometry>
        </mxCell>
        <mxCell id="SOMYrXpBg_lJUjriWc2L-12" value="挂账 40" style="ellipse;whiteSpace=wrap;html=1;" vertex="1" parent="1">
          <mxGeometry x="2580" y="-570" width="120" height="80" as="geometry" />
        </mxCell>
        <mxCell id="SOMYrXpBg_lJUjriWc2L-13" value="" style="endArrow=async;html=1;rounded=0;fillColor=#f5f5f5;strokeColor=#666666;endFill=1;" edge="1" parent="1">
          <mxGeometry width="50" height="50" relative="1" as="geometry">
            <mxPoint x="2265" y="-140" as="sourcePoint" />
            <mxPoint x="3055" y="-140" as="targetPoint" />
          </mxGeometry>
        </mxCell>
        <mxCell id="SOMYrXpBg_lJUjriWc2L-14" value="时间轴" style="text;strokeColor=none;fillColor=none;html=1;fontSize=24;fontStyle=1;verticalAlign=middle;align=center;" vertex="1" parent="1">
          <mxGeometry x="2570" y="-180" width="100" height="40" as="geometry" />
        </mxCell>
        <mxCell id="SOMYrXpBg_lJUjriWc2L-15" style="edgeStyle=orthogonalEdgeStyle;rounded=0;orthogonalLoop=1;jettySize=auto;html=1;exitX=1;exitY=0.5;exitDx=0;exitDy=0;entryX=0.5;entryY=1;entryDx=0;entryDy=0;curved=1;dashed=1;" edge="1" parent="1" source="SOMYrXpBg_lJUjriWc2L-16" target="SOMYrXpBg_lJUjriWc2L-21">
          <mxGeometry relative="1" as="geometry" />
        </mxCell>
        <mxCell id="SOMYrXpBg_lJUjriWc2L-16" value="&amp;nbsp;结算 +10" style="ellipse;whiteSpace=wrap;html=1;" vertex="1" parent="1">
          <mxGeometry x="2705" y="-300" width="120" height="80" as="geometry" />
        </mxCell>
        <mxCell id="SOMYrXpBg_lJUjriWc2L-17" value="部分抵扣" style="text;html=1;align=center;verticalAlign=middle;whiteSpace=wrap;rounded=0;" vertex="1" parent="1">
          <mxGeometry x="2450" y="-580" width="60" height="30" as="geometry" />
        </mxCell>
        <mxCell id="SOMYrXpBg_lJUjriWc2L-18" value="部分抵扣" style="text;html=1;align=center;verticalAlign=middle;whiteSpace=wrap;rounded=0;" vertex="1" parent="1">
          <mxGeometry x="2690" y="-570" width="60" height="30" as="geometry" />
        </mxCell>
        <mxCell id="SOMYrXpBg_lJUjriWc2L-19" style="edgeStyle=orthogonalEdgeStyle;rounded=0;orthogonalLoop=1;jettySize=auto;html=1;exitX=0;exitY=0.5;exitDx=0;exitDy=0;entryX=1;entryY=0.5;entryDx=0;entryDy=0;" edge="1" parent="1" source="SOMYrXpBg_lJUjriWc2L-21" target="SOMYrXpBg_lJUjriWc2L-12">
          <mxGeometry relative="1" as="geometry" />
        </mxCell>
        <mxCell id="SOMYrXpBg_lJUjriWc2L-20" value="&amp;nbsp;源头挂账单" style="edgeLabel;html=1;align=center;verticalAlign=middle;resizable=0;points=[];" vertex="1" connectable="0" parent="SOMYrXpBg_lJUjriWc2L-19">
          <mxGeometry x="-0.2733" y="-3" relative="1" as="geometry">
            <mxPoint x="1" as="offset" />
          </mxGeometry>
        </mxCell>
        <mxCell id="SOMYrXpBg_lJUjriWc2L-21" value="挂账 30" style="ellipse;whiteSpace=wrap;html=1;" vertex="1" parent="1">
          <mxGeometry x="2850" y="-570" width="120" height="80" as="geometry" />
        </mxCell>
        <mxCell id="SOMYrXpBg_lJUjriWc2L-22" value="待抵扣" style="text;html=1;align=center;verticalAlign=middle;whiteSpace=wrap;rounded=0;" vertex="1" parent="1">
          <mxGeometry x="2970" y="-570" width="60" height="30" as="geometry" />
        </mxCell>
        <mxCell id="SOMYrXpBg_lJUjriWc2L-23" value="资金动账流水&lt;div&gt;+60&lt;/div&gt;&lt;div&gt;业务收入&lt;/div&gt;" style="rounded=1;whiteSpace=wrap;html=1;" vertex="1" parent="1">
          <mxGeometry x="2440" y="-429" width="90" height="40" as="geometry" />
        </mxCell>
        <mxCell id="SOMYrXpBg_lJUjriWc2L-24" value="资金动账流水&lt;div&gt;-60&lt;/div&gt;&lt;div&gt;负债抵扣&lt;/div&gt;" style="rounded=1;whiteSpace=wrap;html=1;" vertex="1" parent="1">
          <mxGeometry x="2548" y="-430" width="90" height="40" as="geometry" />
        </mxCell>
        <mxCell id="SOMYrXpBg_lJUjriWc2L-25" value="资金动账流水&lt;div&gt;+10&lt;/div&gt;&lt;div&gt;业务收入&lt;/div&gt;" style="rounded=1;whiteSpace=wrap;html=1;" vertex="1" parent="1">
          <mxGeometry x="2730" y="-430" width="90" height="40" as="geometry" />
        </mxCell>
        <mxCell id="SOMYrXpBg_lJUjriWc2L-26" value="资金动账流水&lt;div&gt;-10&lt;/div&gt;&lt;div&gt;负债抵扣&lt;/div&gt;" style="rounded=1;whiteSpace=wrap;html=1;" vertex="1" parent="1">
          <mxGeometry x="2850" y="-430" width="90" height="40" as="geometry" />
        </mxCell>
        <mxCell id="SOMYrXpBg_lJUjriWc2L-27" style="edgeStyle=orthogonalEdgeStyle;rounded=0;orthogonalLoop=1;jettySize=auto;html=1;exitX=1;exitY=0;exitDx=0;exitDy=0;entryX=0;entryY=0.5;entryDx=0;entryDy=0;curved=1;" edge="1" parent="1" source="SOMYrXpBg_lJUjriWc2L-29" target="SOMYrXpBg_lJUjriWc2L-30">
          <mxGeometry relative="1" as="geometry" />
        </mxCell>
        <mxCell id="SOMYrXpBg_lJUjriWc2L-28" style="edgeStyle=orthogonalEdgeStyle;rounded=0;orthogonalLoop=1;jettySize=auto;html=1;exitX=1;exitY=1;exitDx=0;exitDy=0;entryX=0;entryY=0.5;entryDx=0;entryDy=0;curved=1;" edge="1" parent="1" source="SOMYrXpBg_lJUjriWc2L-29" target="SOMYrXpBg_lJUjriWc2L-31">
          <mxGeometry relative="1" as="geometry" />
        </mxCell>
        <mxCell id="SOMYrXpBg_lJUjriWc2L-29" value="&amp;nbsp;待抵扣" style="ellipse;whiteSpace=wrap;html=1;aspect=fixed;" vertex="1" parent="1">
          <mxGeometry x="2499" y="-1070" width="80" height="80" as="geometry" />
        </mxCell>
        <mxCell id="SOMYrXpBg_lJUjriWc2L-30" value="部分抵扣" style="ellipse;whiteSpace=wrap;html=1;aspect=fixed;" vertex="1" parent="1">
          <mxGeometry x="2635" y="-1120" width="80" height="80" as="geometry" />
        </mxCell>
        <mxCell id="SOMYrXpBg_lJUjriWc2L-31" value="全部抵扣" style="ellipse;whiteSpace=wrap;html=1;aspect=fixed;" vertex="1" parent="1">
          <mxGeometry x="2635" y="-1000" width="80" height="80" as="geometry" />
        </mxCell>
        <mxCell id="SOMYrXpBg_lJUjriWc2L-32" value="挂账单状态机流转" style="text;strokeColor=none;fillColor=none;html=1;fontSize=24;fontStyle=1;verticalAlign=middle;align=center;" vertex="1" parent="1">
          <mxGeometry x="2554" y="-1205" width="100" height="40" as="geometry" />
        </mxCell>
        <mxCell id="SOMYrXpBg_lJUjriWc2L-33" value="账户" style="text;strokeColor=none;fillColor=none;html=1;fontSize=24;fontStyle=1;verticalAlign=middle;align=center;" vertex="1" parent="1">
          <mxGeometry x="2190" y="-600" width="100" height="40" as="geometry" />
        </mxCell>
        <mxCell id="SOMYrXpBg_lJUjriWc2L-34" style="edgeStyle=orthogonalEdgeStyle;rounded=0;orthogonalLoop=1;jettySize=auto;html=1;exitX=0.5;exitY=0;exitDx=0;exitDy=0;entryX=0.664;entryY=0.946;entryDx=0;entryDy=0;entryPerimeter=0;curved=1;" edge="1" parent="1" source="SOMYrXpBg_lJUjriWc2L-21" target="SOMYrXpBg_lJUjriWc2L-5">
          <mxGeometry relative="1" as="geometry" />
        </mxCell>
        <mxCell id="SOMYrXpBg_lJUjriWc2L-35" value="付出方向源头" style="edgeLabel;html=1;align=center;verticalAlign=middle;resizable=0;points=[];" vertex="1" connectable="0" parent="SOMYrXpBg_lJUjriWc2L-34">
          <mxGeometry x="-0.243" y="2" relative="1" as="geometry">
            <mxPoint as="offset" />
          </mxGeometry>
        </mxCell>
        <mxCell id="SOMYrXpBg_lJUjriWc2L-36" value="" style="rounded=1;whiteSpace=wrap;html=1;fillColor=#fff2cc;strokeColor=#d6b656;" vertex="1" parent="1">
          <mxGeometry x="2170" y="80" width="980" height="270" as="geometry" />
        </mxCell>
        <mxCell id="SOMYrXpBg_lJUjriWc2L-37" value="账户" style="text;strokeColor=none;fillColor=none;html=1;fontSize=24;fontStyle=1;verticalAlign=middle;align=center;" vertex="1" parent="1">
          <mxGeometry x="2200" y="100" width="100" height="40" as="geometry" />
        </mxCell>
        <mxCell id="SOMYrXpBg_lJUjriWc2L-38" style="edgeStyle=orthogonalEdgeStyle;rounded=0;orthogonalLoop=1;jettySize=auto;html=1;exitX=0.5;exitY=0;exitDx=0;exitDy=0;entryX=0.5;entryY=1;entryDx=0;entryDy=0;curved=1;" edge="1" parent="1" source="SOMYrXpBg_lJUjriWc2L-40" target="SOMYrXpBg_lJUjriWc2L-41">
          <mxGeometry relative="1" as="geometry" />
        </mxCell>
        <mxCell id="SOMYrXpBg_lJUjriWc2L-39" value="业务收入" style="edgeLabel;html=1;align=center;verticalAlign=middle;resizable=0;points=[];" vertex="1" connectable="0" parent="SOMYrXpBg_lJUjriWc2L-38">
          <mxGeometry x="-0.51" y="-11" relative="1" as="geometry">
            <mxPoint as="offset" />
          </mxGeometry>
        </mxCell>
        <mxCell id="SOMYrXpBg_lJUjriWc2L-40" value="&amp;nbsp;结算 +60" style="ellipse;whiteSpace=wrap;html=1;" vertex="1" parent="1">
          <mxGeometry x="2250" y="470" width="120" height="80" as="geometry" />
        </mxCell>
        <mxCell id="SOMYrXpBg_lJUjriWc2L-41" value="账户 0 -&amp;gt; 60" style="rounded=0;whiteSpace=wrap;html=1;" vertex="1" parent="1">
          <mxGeometry x="2340" y="230" width="90" height="30" as="geometry" />
        </mxCell>
        <mxCell id="SOMYrXpBg_lJUjriWc2L-42" value="资金动账流水&lt;div&gt;+60&lt;/div&gt;&lt;div&gt;业务收入&lt;/div&gt;" style="rounded=1;whiteSpace=wrap;html=1;" vertex="1" parent="1">
          <mxGeometry x="2320" y="280" width="90" height="40" as="geometry" />
        </mxCell>
        <mxCell id="SOMYrXpBg_lJUjriWc2L-43" value="&amp;nbsp;结算 -100" style="ellipse;whiteSpace=wrap;html=1;" vertex="1" parent="1">
          <mxGeometry x="2510" y="-50" width="120" height="80" as="geometry" />
        </mxCell>
        <mxCell id="SOMYrXpBg_lJUjriWc2L-44" style="edgeStyle=orthogonalEdgeStyle;rounded=0;orthogonalLoop=1;jettySize=auto;html=1;exitX=0.5;exitY=0;exitDx=0;exitDy=0;entryX=0.5;entryY=1;entryDx=0;entryDy=0;curved=1;" edge="1" parent="1" source="SOMYrXpBg_lJUjriWc2L-48" target="SOMYrXpBg_lJUjriWc2L-43">
          <mxGeometry relative="1" as="geometry" />
        </mxCell>
        <mxCell id="SOMYrXpBg_lJUjriWc2L-45" value="付出方向源头" style="edgeLabel;html=1;align=center;verticalAlign=middle;resizable=0;points=[];" vertex="1" connectable="0" parent="SOMYrXpBg_lJUjriWc2L-44">
          <mxGeometry x="0.585" y="-2" relative="1" as="geometry">
            <mxPoint as="offset" />
          </mxGeometry>
        </mxCell>
        <mxCell id="SOMYrXpBg_lJUjriWc2L-46" style="edgeStyle=orthogonalEdgeStyle;rounded=0;orthogonalLoop=1;jettySize=auto;html=1;exitX=1;exitY=0.5;exitDx=0;exitDy=0;entryX=0;entryY=0.5;entryDx=0;entryDy=0;" edge="1" parent="1" source="SOMYrXpBg_lJUjriWc2L-48" target="SOMYrXpBg_lJUjriWc2L-49">
          <mxGeometry relative="1" as="geometry" />
        </mxCell>
        <mxCell id="SOMYrXpBg_lJUjriWc2L-47" value="源头挂账单" style="edgeLabel;html=1;align=center;verticalAlign=middle;resizable=0;points=[];" vertex="1" connectable="0" parent="SOMYrXpBg_lJUjriWc2L-46">
          <mxGeometry x="-0.3135" y="4" relative="1" as="geometry">
            <mxPoint as="offset" />
          </mxGeometry>
        </mxCell>
        <mxCell id="SOMYrXpBg_lJUjriWc2L-48" value="挂账 100" style="ellipse;whiteSpace=wrap;html=1;" vertex="1" parent="1">
          <mxGeometry x="2600" y="150" width="120" height="80" as="geometry" />
        </mxCell>
        <mxCell id="SOMYrXpBg_lJUjriWc2L-49" value="挂账 40" style="ellipse;whiteSpace=wrap;html=1;" vertex="1" parent="1">
          <mxGeometry x="2810" y="150" width="120" height="80" as="geometry" />
        </mxCell>
        <mxCell id="SOMYrXpBg_lJUjriWc2L-50" value="资金动账流水&lt;div&gt;-60&lt;/div&gt;&lt;div&gt;负债抵扣&lt;/div&gt;" style="rounded=1;whiteSpace=wrap;html=1;" vertex="1" parent="1">
          <mxGeometry x="2720" y="280" width="90" height="40" as="geometry" />
        </mxCell>
        <mxCell id="SOMYrXpBg_lJUjriWc2L-51" value="账户 60 -&amp;gt; 0" style="rounded=0;whiteSpace=wrap;html=1;" vertex="1" parent="1">
          <mxGeometry x="2715" y="230" width="95" height="30" as="geometry" />
        </mxCell>
        <mxCell id="SOMYrXpBg_lJUjriWc2L-52" value="账户 0 -&amp;gt; 60 -&amp;gt; 0" style="rounded=0;whiteSpace=wrap;html=1;" vertex="1" parent="1">
          <mxGeometry x="2470" y="-480" width="110" height="30" as="geometry" />
        </mxCell>
        <mxCell id="SOMYrXpBg_lJUjriWc2L-53" value="账户 0 -&amp;gt; 10 -&amp;gt; 0" style="rounded=0;whiteSpace=wrap;html=1;" vertex="1" parent="1">
          <mxGeometry x="2760" y="-477" width="110" height="30" as="geometry" />
        </mxCell>
        <mxCell id="SOMYrXpBg_lJUjriWc2L-54" value="账户 0&amp;nbsp;" style="rounded=0;whiteSpace=wrap;html=1;" vertex="1" parent="1">
          <mxGeometry x="2290" y="-605" width="110" height="30" as="geometry" />
        </mxCell>
        <mxCell id="SOMYrXpBg_lJUjriWc2L-55" value="" style="endArrow=async;html=1;rounded=0;fillColor=#f5f5f5;strokeColor=#666666;endFill=1;" edge="1" parent="1">
          <mxGeometry width="50" height="50" relative="1" as="geometry">
            <mxPoint x="2261" y="625" as="sourcePoint" />
            <mxPoint x="3051" y="625" as="targetPoint" />
          </mxGeometry>
        </mxCell>
        <mxCell id="SOMYrXpBg_lJUjriWc2L-56" value="时间轴" style="text;strokeColor=none;fillColor=none;html=1;fontSize=24;fontStyle=1;verticalAlign=middle;align=center;" vertex="1" parent="1">
          <mxGeometry x="2566" y="585" width="100" height="40" as="geometry" />
        </mxCell>
        <mxCell id="SOMYrXpBg_lJUjriWc2L-57" style="edgeStyle=orthogonalEdgeStyle;rounded=0;orthogonalLoop=1;jettySize=auto;html=1;exitX=0.5;exitY=0;exitDx=0;exitDy=0;entryX=0.674;entryY=0.964;entryDx=0;entryDy=0;entryPerimeter=0;curved=1;" edge="1" parent="1" source="SOMYrXpBg_lJUjriWc2L-49" target="SOMYrXpBg_lJUjriWc2L-43">
          <mxGeometry relative="1" as="geometry" />
        </mxCell>
        <mxCell id="SOMYrXpBg_lJUjriWc2L-58" value="付出方向源头" style="edgeLabel;html=1;align=center;verticalAlign=middle;resizable=0;points=[];" vertex="1" connectable="0" parent="SOMYrXpBg_lJUjriWc2L-57">
          <mxGeometry x="-0.0773" y="-1" relative="1" as="geometry">
            <mxPoint as="offset" />
          </mxGeometry>
        </mxCell>
        <mxCell id="SOMYrXpBg_lJUjriWc2L-59" value="部分抵扣" style="text;html=1;align=center;verticalAlign=middle;whiteSpace=wrap;rounded=0;" vertex="1" parent="1">
          <mxGeometry x="2690" y="130" width="60" height="30" as="geometry" />
        </mxCell>
        <mxCell id="SOMYrXpBg_lJUjriWc2L-60" value="待抵扣" style="text;html=1;align=center;verticalAlign=middle;whiteSpace=wrap;rounded=0;" vertex="1" parent="1">
          <mxGeometry x="2915" y="140" width="60" height="30" as="geometry" />
        </mxCell>
      </root>
    </mxGraphModel>
  </diagram>
</mxfile>
